<svg width="19" height="20" viewBox="0 0 19 20" fill="none" xmlns="http://www.w3.org/2000/svg">
<path id="Subtract" fill-rule="evenodd" clip-rule="evenodd" d="M3.80845 17.6C3.80845 16.555 4.65372 15.7 5.69843 15.7C6.74314 15.7 7.59791 16.555 7.59791 17.6C7.59791 18.645 6.74314 19.5 5.69843 19.5C4.65372 19.5 3.80845 18.645 3.80845 17.6ZM0.949739 2.4C0.427382 2.4 0 1.9725 0 1.45C0 0.927502 0.427382 0.500001 0.949739 0.500001H2.50731C2.68649 0.499713 2.86205 0.550491 3.01343 0.646391C3.16481 0.742291 3.28574 0.879343 3.36207 1.0415L3.9984 2.4H18.0545C18.2192 2.40008 18.3811 2.44318 18.524 2.52504C18.667 2.60689 18.7861 2.72467 18.8695 2.8667C18.953 3.00874 18.998 3.17011 18.9999 3.33485C19.0019 3.4996 18.9608 3.66201 18.8808 3.806L15.4807 9.9715C15.1578 10.5605 14.531 10.95 13.8187 10.95H6.74314L5.69843 12.85H16.1456C16.6679 12.85 17.0953 13.2775 17.0953 13.8C17.0953 14.3225 16.6679 14.75 16.1456 14.75H5.69843C4.25483 14.75 3.34308 13.2015 4.03639 11.9285L5.31854 9.6105L1.89948 2.4H0.949739ZM13.3058 17.6C13.3058 16.555 14.1511 15.7 15.1958 15.7C16.2405 15.7 17.0953 16.555 17.0953 17.6C17.0953 18.645 16.2405 19.5 15.1958 19.5C14.1511 19.5 13.3058 18.645 13.3058 17.6ZM8 6.38091L9.54545 7.8806L14 3.5L15 4.50777L9.54545 9.88091L7 7.37344L8 6.38091Z" fill="#008ACE"/>
</svg>
