<svg width="17" height="18" viewBox="0 0 17 18" fill="none" xmlns="http://www.w3.org/2000/svg">
<path id="Vector" d="M7.06641 10.4274C8.10846 11.5069 9.36931 12.3403 10.7604 12.8691L12.6423 11.3399C12.6981 11.3006 12.7643 11.2796 12.832 11.2796C12.8998 11.2796 12.9659 11.3006 13.0217 11.3399L16.5161 13.6388C16.6487 13.7203 16.761 13.8321 16.8441 13.9655C16.9271 14.0989 16.9787 14.2501 16.9947 14.4073C17.0106 14.5646 16.9906 14.7234 16.9361 14.8714C16.8817 15.0193 16.7942 15.1523 16.6808 15.2598L15.0434 16.9114C14.809 17.148 14.5208 17.3216 14.2046 17.4168C13.8884 17.512 13.554 17.5257 13.2314 17.4568C10.0127 16.778 7.04601 15.1882 4.6703 12.8691C2.34732 10.527 0.739827 7.54677 0.0428232 4.29007C-0.0260318 3.96569 -0.0116608 3.62864 0.0845435 3.3116C0.180748 2.99455 0.355523 2.70826 0.591931 2.48047L2.28917 0.808493C2.3942 0.69828 2.52229 0.613757 2.66384 0.561254C2.80539 0.508752 2.95674 0.48963 3.10655 0.50532C3.25636 0.521011 3.40076 0.571107 3.52892 0.651858C3.65709 0.732609 3.76571 0.841922 3.84664 0.971612L6.17286 4.49397C6.21298 4.54928 6.23464 4.61629 6.23464 4.68512C6.23464 4.75396 6.21298 4.82097 6.17286 4.87628L4.64035 6.75725C5.17228 8.14934 6.00101 9.40305 7.06641 10.4274Z" fill="#008ACE"/>
</svg>
