<svg width="19" height="18" viewBox="0 0 19 18" fill="none" xmlns="http://www.w3.org/2000/svg">
<path id="Vector" d="M18.4074 2.89898C17.6117 1.27936 15.3195 -0.0457842 12.6531 0.725745C11.379 1.09074 10.2674 1.87349 9.49987 2.9461C8.73233 1.87349 7.62069 1.09074 6.34659 0.725745C3.67432 -0.0340051 1.38805 1.27936 0.592309 2.89898C-0.524106 5.16645 -0.0609123 7.71662 1.97001 10.4788C3.5615 12.6403 5.83589 14.8312 9.13763 17.3755C9.24197 17.4562 9.37051 17.5 9.50284 17.5C9.63517 17.5 9.7637 17.4562 9.86805 17.3755C13.1638 14.8371 15.4442 12.6638 17.0357 10.4788C19.0606 7.71662 19.5238 5.16645 18.4074 2.89898Z" fill="#008ACE"/>
</svg>
