<svg width="19" height="20" viewBox="0 0 19 20" fill="none" xmlns="http://www.w3.org/2000/svg">
<path id="Vector" d="M5.69843 15.825C4.65372 15.825 3.80845 16.68 3.80845 17.725C3.80845 18.77 4.65372 19.625 5.69843 19.625C6.74314 19.625 7.59791 18.77 7.59791 17.725C7.59791 16.68 6.74314 15.825 5.69843 15.825ZM0 1.575C0 2.0975 0.427382 2.525 0.949739 2.525H1.89948L5.31854 9.7355L4.03639 12.0535C3.34308 13.3265 4.25483 14.875 5.69843 14.875H16.1456C16.6679 14.875 17.0953 14.4475 17.0953 13.925C17.0953 13.4025 16.6679 12.975 16.1456 12.975H5.69843L6.74314 11.075H13.8187C14.531 11.075 15.1578 10.6855 15.4807 10.0965L18.8808 3.931C18.9608 3.787 19.0019 3.6246 18.9999 3.45985C18.998 3.29511 18.953 3.13373 18.8695 2.9917C18.7861 2.84966 18.667 2.73189 18.524 2.65004C18.3811 2.56818 18.2192 2.52508 18.0545 2.525H3.9984L3.36207 1.1665C3.28574 1.00434 3.16481 0.86729 3.01343 0.77139C2.86205 0.67549 2.68649 0.624712 2.50731 0.625001H0.949739C0.427382 0.625001 0 1.0525 0 1.575ZM15.1958 15.825C14.1511 15.825 13.3058 16.68 13.3058 17.725C13.3058 18.77 14.1511 19.625 15.1958 19.625C16.2405 19.625 17.0953 18.77 17.0953 17.725C17.0953 16.68 16.2405 15.825 15.1958 15.825Z" fill="#008ACE"/>
</svg>
