<svg width="53" height="56" viewBox="0 0 53 56" fill="none" xmlns="http://www.w3.org/2000/svg">
<g id="Person">
<path id="Vector" d="M35.5801 4.0725C33.1476 1.44625 29.7501 0 26.0001 0C22.2301 0 18.8214 1.4375 16.4001 4.0475C13.9526 6.68625 12.7601 10.2725 13.0401 14.145C13.5951 21.785 19.4089 28 26.0001 28C32.5914 28 38.3951 21.7862 38.9589 14.1475C39.2426 10.31 38.0426 6.73125 35.5801 4.0725Z" fill="white"/>
<path id="Vector_2" d="M48.0007 56H4.00072C3.4248 56.0075 2.85445 55.8865 2.33117 55.6458C1.80789 55.4052 1.34484 55.0509 0.975715 54.6087C0.163215 53.6375 -0.164285 52.3113 0.0782149 50.97C1.13321 45.1175 4.42572 40.2013 9.60072 36.75C14.1982 33.6862 20.022 32 26.0007 32C31.9795 32 37.8032 33.6875 42.4007 36.75C47.5757 40.2 50.8682 45.1163 51.9232 50.9688C52.1657 52.31 51.8382 53.6362 51.0257 54.6075C50.6567 55.0499 50.1937 55.4044 49.6704 55.6453C49.1471 55.8862 48.5767 56.0073 48.0007 56Z" fill="white"/>
</g>
</svg>
